<svg xmlns="http://www.w3.org/2000/svg" viewBox="0 0 32 32" id="option">
  <g>
    <path fill="#e2e2e2" d="M12.43 14.75H3.57a2.33 2.33 0 0 1-2.32-2.32V3.57A2.33 2.33 0 0 1 3.57 1.25h8.85a2.33 2.33 0 0 1 2.32 2.32v8.85A2.33 2.33 0 0 1 12.43 14.75zm-8.85-12a.82.82 0 0 0-.82.82v8.85a.82.82 0 0 0 .82.82h8.85a.82.82 0 0 0 .82-.82V3.57a.82.82 0 0 0-.82-.82zM28.43 14.75H19.57a2.33 2.33 0 0 1-2.32-2.32V3.57a2.33 2.33 0 0 1 2.32-2.32h8.85a2.33 2.33 0 0 1 2.32 2.32v8.85A2.33 2.33 0 0 1 28.43 14.75zm-8.85-12a.82.82 0 0 0-.82.82v8.85a.82.82 0 0 0 .82.82h8.85a.82.82 0 0 0 .82-.82V3.57a.82.82 0 0 0-.82-.82zM28.43 30.75H19.57a2.33 2.33 0 0 1-2.32-2.32V19.57a2.33 2.33 0 0 1 2.32-2.32h8.85a2.33 2.33 0 0 1 2.32 2.32v8.85A2.33 2.33 0 0 1 28.43 30.75zm-8.85-12a.82.82 0 0 0-.82.82v8.85a.82.82 0 0 0 .82.82h8.85a.82.82 0 0 0 .82-.82V19.57a.82.82 0 0 0-.82-.82zM8 30.75A6.75 6.75 0 1 1 14.75 24 6.76 6.76 0 0 1 8 30.75zm0-12A5.25 5.25 0 1 0 13.25 24 5.26 5.26 0 0 0 8 18.75z"></path>
  </g>
</svg>
